<?xml version="1.0"?>
<svg xmlns="http://www.w3.org/2000/svg" id="outline" viewBox="0 0 512 512" width="512" height="512"><title>interview-job-HR-business-avatar</title><path d="M252.51953,244.42188a8.00507,8.00507,0,0,0-8.72461-4.26661l-20.916,4.1836a31.80664,31.80664,0,0,1-27.0918-7.07422l-22.45776-19.2334a72.24975,72.24975,0,0,0-11.72876-23.89746l-6.66651-8.88867A31.79934,31.79934,0,0,0,160,168V130.42188a26.42195,26.42195,0,0,0-41.07812-21.98438L99.5625,121.34375A7.99943,7.99943,0,0,0,96,128v40a31.79645,31.79645,0,0,0,3.95483,15.39111l-18.71948,14.9751a62.4017,62.4017,0,0,0-19.7146,27.77344A40.06689,40.06689,0,0,0,24,200a8.00039,8.00039,0,0,0-8,8V336a64.09439,64.09439,0,0,0,39.37793,59.06763L40.1084,486.68457A8.00034,8.00034,0,0,0,48,496H72a7.99866,7.99866,0,0,0,7.76074-6.05957L102.24585,400h19.5083l22.48511,89.94043A7.99866,7.99866,0,0,0,152,496h24a8.00034,8.00034,0,0,0,7.8916-9.31543l-14.46972-86.81811a7.95416,7.95416,0,0,0,1.71484-.50611l29.52832,67.833A7.99969,7.99969,0,0,0,208,472h24a7.98975,7.98975,0,0,0,7.99512-8H240V352a48.05437,48.05437,0,0,0-48-48H176V288.90479l15.93945,3.98486a40.01971,40.01971,0,0,0,27.59082-3.02832l37.41211-18.70606a8.00075,8.00075,0,0,0,3.57715-10.73339ZM176,241.38452l7.2561,6.2146L176,262.11133ZM112,168V152h32v16a16,16,0,0,1-32,0Zm0-35.71875L127.79785,121.749A10.42284,10.42284,0,0,1,144,130.42188V136H112Zm-20.76953,78.5791L110.968,195.0708a31.79036,31.79036,0,0,0,11.07739,4.365L128,217.29785V264h16V216a8.01957,8.01957,0,0,0-.41016-2.53027l-5.08349-15.25025a31.8478,31.8478,0,0,0,4.63183-2.03491l5.66162,7.54883A56.34833,56.34833,0,0,1,160,237.333V304H108.8916l-3.69726-12.94043a8.04008,8.04008,0,0,1,.26464-5.167l13.96875-34.92188-14.85546-5.9414-6.40821,16.02026L71.63623,250.43848,75.33984,235.624A46.2593,46.2593,0,0,1,91.23047,210.86035Zm-1.41992,84.5957,12.67285,44.35743-3.21,1.60547-28.61035-51.498a31.89493,31.89493,0,0,1-3.07227-23.30176l.12891-.51514,24.50244,9.80079-1.61865,4.04638A24.11879,24.11879,0,0,0,89.81055,295.45605ZM64,310.87231l22.571,40.62793c.05127.15577.10328.31128.158.46558A24.03016,24.03016,0,0,1,64,328ZM32,336V217.37109A24.04166,24.04166,0,0,1,48,240v88a40.04584,40.04584,0,0,0,40,40h48a24.04166,24.04166,0,0,1,22.62891,16H80A48.05375,48.05375,0,0,1,32,336ZM65.75391,480H57.44336l13.44409-80.65967A64.18733,64.18733,0,0,0,80,400h5.75415Zm92.49218,0-20.00024-80h14.97681l13.334,80Zm54.9961-24L170.0625,356.80664A7.99969,7.99969,0,0,0,162.72754,352H113.88867l1.68945-.84473a8.0003,8.0003,0,0,0,4.11426-9.35254L113.46289,320h49.88867a31.928,31.928,0,0,1,31.0791,24.37891L221.80176,456ZM224,352v45.78516l-14.03027-57.2168a47.98672,47.98672,0,0,0-9.91309-19.53955A32.05715,32.05715,0,0,1,224,352Zm-11.625-76.44922a24.03093,24.03093,0,0,1-16.55469,1.81738l-8.4978-2.12451,9.30884-18.61743a47.72643,47.72643,0,0,0,29.38525,3.4021l14.92481-2.98535,1.68945,3.37891Z"/><path d="M488,200a39.91976,39.91976,0,0,0-30.52588,14.19214,71.9766,71.9766,0,0,0-16.68506-23.08569l-13.38672-12.33594A31.84748,31.84748,0,0,0,429.27246,168V128a7.99943,7.99943,0,0,0-3.5625-6.65625L406.35059,108.4375A26.32709,26.32709,0,0,0,392,104.01123V40a24.0275,24.0275,0,0,0-24-24H208a24.0275,24.0275,0,0,0-24,24V208a8.00053,8.00053,0,0,0,13.65723,5.65723l35.31347-35.31348A7.94368,7.94368,0,0,1,238.627,176H366.28516a31.82718,31.82718,0,0,0,3.62182,8.572l-7.033,7.68775A71.83558,71.83558,0,0,0,344,240.85645v29.49169l-41.83594,9.86573A7.99924,7.99924,0,0,0,296,288v22.45752A48.01679,48.01679,0,0,0,272,352V464h.00488A7.98975,7.98975,0,0,0,280,472h24a7.99969,7.99969,0,0,0,7.335-4.80664l29.52832-67.833a7.96006,7.96006,0,0,0,2.08667.563l-15.29956,86.686A7.99966,7.99966,0,0,0,335.52832,496H360a8.0003,8.0003,0,0,0,7.752-6.02344L390.68823,400h19.06592l22.48511,89.94043A7.99866,7.99866,0,0,0,440,496h24.47168a8.00048,8.00048,0,0,0,7.88477-9.35254l-15.7146-91.58765A64.09416,64.09416,0,0,0,496,336V208A8.00039,8.00039,0,0,0,488,200ZM440,315.66968a42.8198,42.8198,0,0,0,8-5.09351V328a24.03707,24.03707,0,0,1-14.69531,22.12207A39.76383,39.76383,0,0,0,440,328ZM397.27148,184a16.0175,16.0175,0,0,1-15.999-16V152h32v16A16.01853,16.01853,0,0,1,397.27148,184Zm16.001-51.71875V136h-32v-5.57812A10.42246,10.42246,0,0,1,397.47559,121.75ZM221.65625,167.0293,200,188.68652V40a8.00917,8.00917,0,0,1,8-8H368a8.00917,8.00917,0,0,1,8,8v69.18164a26.39845,26.39845,0,0,0-10.72754,21.24024V160H238.627A23.84338,23.84338,0,0,0,221.65625,167.0293Zm153.02344,36.02929,6.68677-7.30981a31.90509,31.90509,0,0,0,3.68432,1.82031L376.999,212.12891A7.99731,7.99731,0,0,0,376,216v40h16V218.06445l10.20044-18.44482A31.88926,31.88926,0,0,0,418.273,192.114l11.67432,10.75806A56.15347,56.15347,0,0,1,448,244.05469v33.22363A26.752,26.752,0,0,1,421.27832,304H360v-9.75391L405.82227,282.791A23.96689,23.96689,0,0,0,424,259.50781V240H408v19.50781a7.99,7.99,0,0,1-6.05957,7.76172L360,277.75439V240.85645A55.876,55.876,0,0,1,374.67969,203.05859ZM312,304v-9.667l32-7.54663V304H312Zm-.05664,17.02881a47.98672,47.98672,0,0,0-9.91309,19.53955L288,397.78516V352A32.05715,32.05715,0,0,1,311.94336,321.02881ZM298.75781,456h-8.55957l27.3711-111.62109A31.928,31.928,0,0,1,348.64844,320h72.62988c.915,0,1.8208-.03906,2.72168-.096V328a24.0275,24.0275,0,0,1-24,24H349.27246a7.99969,7.99969,0,0,0-7.335,4.80664Zm55.02539,24h-8.71972l14.11963-80h14.9934Zm101.19922,0h-8.73633l-20.00024-80H432a64.236,64.236,0,0,0,9.14209-.66333ZM480,336a48.05375,48.05375,0,0,1-48,48H353.37109A24.04166,24.04166,0,0,1,376,368h48a40.04584,40.04584,0,0,0,40-40V240a24.04166,24.04166,0,0,1,16-22.62891Z"/><rect x="256" y="56" width="16" height="16"/><rect x="288" y="56" width="64" height="16"/><rect x="224" y="88" width="72" height="16"/><rect x="312" y="88" width="40" height="16"/><rect x="224" y="120" width="32" height="16"/><rect x="272" y="120" width="80" height="16"/></svg>
