<?xml version="1.0" encoding="iso-8859-1"?>
<!-- Generator: Adobe Illustrator 19.0.0, SVG Export Plug-In . SVG Version: 6.00 Build 0)  -->
<svg version="1.1" id="Capa_1" xmlns="http://www.w3.org/2000/svg" xmlns:xlink="http://www.w3.org/1999/xlink" x="0px" y="0px"
	 viewBox="0 0 511 511" style="enable-background:new 0 0 511 511;" xml:space="preserve">
<g>
	<path d="M305.521,360.002c-4.139,0.172-7.354,3.667-7.182,7.806l0.667,16.01c0.168,4.033,3.49,7.188,7.488,7.188
		c0.105,0,0.211-0.002,0.317-0.006c4.139-0.172,7.354-3.667,7.182-7.806l-0.667-16.01
		C313.154,363.045,309.66,359.818,305.521,360.002z"/>
	<path d="M431.5,88h-78.783L263.81,58.364l3.723-26.062c1.161-8.126-1.258-16.343-6.637-22.544C255.519,3.557,247.726,0,239.482,0
		c-8.208,0-16.001,3.557-21.379,9.758c-5.378,6.201-7.797,14.418-6.637,22.544l3.723,26.062L126.283,88H79.5
		c-1.48,0-2.928,0.438-4.16,1.26l-24,16c-2.086,1.391-3.34,3.732-3.34,6.24s1.253,4.85,3.34,6.24l16.33,10.886
		c4.294,2.863,7.957,6.47,10.885,10.72l54.318,78.837l2.415,22.939c0.582,5.528,3.997,10.098,8.713,12.354V279.5
		c0,5.827,3.235,10.908,8,13.555v11.652c-9.246,2.289-16.467,10.064-17.694,19.879l-21.124,168.992
		c-0.551,4.41,0.819,8.849,3.76,12.181c2.941,3.331,7.176,5.242,11.62,5.242h221.875c4.444,0,8.679-1.911,11.62-5.242
		c2.941-3.332,4.312-7.771,3.76-12.181l-21.124-168.992c-1.227-9.815-8.447-17.59-17.694-19.879v-11.652
		c4.765-2.647,8-7.728,8-13.555v-26.023c4.716-2.257,8.131-6.826,8.713-12.354l7.803-74.126c0.781-0.002,1.574-0.121,2.356-0.382
		l50.94-16.98c2.624-0.874,5.415-0.449,7.658,1.168c2.243,1.617,3.53,4.13,3.53,6.896V263.5c0,0.276-0.224,0.5-0.5,0.5
		c-12.958,0-23.5,10.542-23.5,23.5s10.542,23.5,23.5,23.5c26.191,0,47.5-21.309,47.5-47.5v-144C463,102.131,448.869,88,431.5,88z
		 M173.717,88l51-17h29.565l51,17H173.717z M160.012,103.916L167.572,240h-16.87c-0.257,0-0.47-0.192-0.497-0.448l-2.614-24.834
		c-0.001-0.01-0.002-0.021-0.003-0.031L135.831,103h24.191C160.002,103.302,159.995,103.606,160.012,103.916z M320,255v24.5
		c0,0.276-0.224,0.5-0.5,0.5h-160c-0.276,0-0.5-0.224-0.5-0.5V255H320z M167,304v-9h145v9H167z M229.435,19.586
		c2.528-2.915,6.19-4.586,10.083-4.586c3.857,0,7.52,1.671,10.047,4.586c2.528,2.914,3.665,6.776,3.119,10.595L248.995,56h-18.99
		l-3.688-25.819C225.771,26.362,226.907,22.5,229.435,19.586z M90.906,130.836c-4.013-5.824-9.032-10.767-14.917-14.69l-6.969-4.646
		l12.75-8.5h38.977l8.84,83.978L90.906,130.836z M128.188,495.831c-0.149-0.169-0.129-0.332-0.122-0.393l21.124-168.992
		c0.531-4.245,4.157-7.446,8.435-7.446h10.056l-7.375,177h-31.743C128.501,496,128.337,496,128.188,495.831z M329.81,326.446
		l21.124,168.992c0.007,0.061,0.028,0.224-0.122,0.393C350.663,496,350.499,496,350.438,496h-31.743l-3.367-80.808
		c-0.173-4.139-3.663-7.354-7.806-7.182c-4.139,0.172-7.354,3.667-7.182,7.806L303.681,496H247V375.5c0-4.142-3.358-7.5-7.5-7.5
		s-7.5,3.358-7.5,7.5V496h-56.681l7.375-177H232v24.501c0,4.142,3.358,7.5,7.5,7.5s7.5-3.358,7.5-7.5V319h49.306l0.701,16.813
		c0.168,4.033,3.49,7.188,7.488,7.188c0.105,0,0.211-0.002,0.317-0.006c4.139-0.172,7.354-3.667,7.182-7.806L311.319,319h10.056
		C325.653,319,329.279,322.201,329.81,326.446z M328.795,239.552c-0.027,0.255-0.24,0.448-0.497,0.448h-16.87l2.227-40.083
		c0.23-4.136-2.937-7.675-7.072-7.904c-4.134-0.232-7.675,2.937-7.904,7.072L296.405,240H247v-80.5c0-4.142-3.358-7.5-7.5-7.5
		s-7.5,3.358-7.5,7.5V240h-49.405l-7.606-136.916c-0.002-0.028-0.007-0.056-0.009-0.084H232v24.501c0,4.142,3.358,7.5,7.5,7.5
		s7.5-3.358,7.5-7.5V103h57.021c-0.002,0.028-0.007,0.056-0.009,0.084l-0.889,15.995c-0.23,4.136,2.937,7.675,7.072,7.904
		c0.142,0.008,0.282,0.012,0.423,0.012c3.951,0,7.26-3.09,7.481-7.084l0.889-15.995c0.017-0.31,0.009-0.614-0.01-0.916h24.191
		L328.795,239.552z M448,263.5c0,17.92-14.58,32.5-32.5,32.5c-4.687,0-8.5-3.813-8.5-8.5s3.813-8.5,8.5-8.5
		c8.547,0,15.5-6.953,15.5-15.5V157.699c0-7.646-3.557-14.594-9.759-19.064c-6.202-4.471-13.919-5.648-21.172-3.23l-46.872,15.624
		L358.252,103H431.5c9.098,0,16.5,7.402,16.5,16.5V263.5z"/>
	<path d="M309.249,144.014c-4.131-0.232-7.674,2.937-7.904,7.072l-0.889,16c-0.23,4.136,2.937,7.675,7.072,7.904
		c0.142,0.008,0.283,0.012,0.423,0.012c3.952,0,7.26-3.09,7.481-7.084l0.889-16C316.551,147.783,313.385,144.244,309.249,144.014z"
		/>
</g>
<g>
</g>
<g>
</g>
<g>
</g>
<g>
</g>
<g>
</g>
<g>
</g>
<g>
</g>
<g>
</g>
<g>
</g>
<g>
</g>
<g>
</g>
<g>
</g>
<g>
</g>
<g>
</g>
<g>
</g>
</svg>
